HIERARCHY
ROOT hip
{
  OFFSET 0 0 0
  CHANNELS 6 Xposition Yposition Zposition Zrotation Yrotation Xrotation
  JOINT abdomen
  {
    OFFSET 0 20.6881 -0.73152
    CHANNELS 3 Zrotation Xrotation Yrotation
    JOINT chest
    {
      OFFSET 0 11.7043 -0.48768
      CHANNELS 3 Zrotation Xrotation Yrotation
      JOINT neck
      {
        OFFSET 0 22.1894 -2.19456
        CHANNELS 3 Zrotation Xrotation Yrotation
        JOINT head
        {
          OFFSET -0.24384 7.07133 1.2192
          CHANNELS 3 Zrotation Xrotation Yrotation
          JOINT leftEye
          {
            OFFSET 4.14528 8.04674 8.04672
            CHANNELS 3 Zrotation Xrotation Yrotation
            End Site
            {
              OFFSET 1 0 0
            }
          }
          JOINT rightEye
          {
            OFFSET -3.6576 8.04674 8.04672
            CHANNELS 3 Zrotation Xrotation Yrotation
            End Site
            {
              OFFSET 1 0 0
            }
          }
        }
      }
      JOINT rCollar
      {
        OFFSET -2.68224 19.2634 -4.8768
        CHANNELS 3 Zrotation Xrotation Yrotation
        JOINT rShldr
        {
          OFFSET -8.77824 -1.95073 1.46304
          CHANNELS 3 Zrotation Xrotation Yrotation
          JOINT rForeArm
          {
            OFFSET -28.1742 -1.7115 0.48768
            CHANNELS 3 Zrotation Xrotation Yrotation
            JOINT rHand
            {
              OFFSET -22.5879 0.773209 7.07136
              CHANNELS 3 Zrotation Xrotation Yrotation
              JOINT rThumb1
              {
                OFFSET -1.2192 -0.487915 3.41376
                CHANNELS 3 Zrotation Xrotation Yrotation
                JOINT rThumb2
                {
                  OFFSET -3.37035 -0.52449 3.41376
                  CHANNELS 3 Zrotation Xrotation Yrotation
                  End Site
                  {
                    OFFSET -1.78271 -1.18214 1.43049
                  }
                }
              }
              JOINT rIndex1
              {
                OFFSET -7.75947 0.938293 5.60832
                CHANNELS 3 Zrotation Xrotation Yrotation
                JOINT rIndex2
                {
                  OFFSET -2.54057 -0.884171 1.56538
                  CHANNELS 3 Zrotation Xrotation Yrotation
                  End Site
                  {
                    OFFSET -1.62519 -0.234802 1.16502
                  }
                }
              }
              JOINT rMid1
              {
                OFFSET -8.24714 1.18213 3.41376
                CHANNELS 3 Zrotation Xrotation Yrotation
                JOINT rMid2
                {
                  OFFSET -3.10165 -0.590103 1.0647
                  CHANNELS 3 Zrotation Xrotation Yrotation
                  End Site
                  {
                    OFFSET -2.48547 -0.328903 0.83742
                  }
                }
              }
              JOINT rRing1
              {
                OFFSET -8.82822 0.546677 1.51678
                CHANNELS 3 Zrotation Xrotation Yrotation
                JOINT rRing2
                {
                  OFFSET -2.60934 -0.819778 -0.0198488
                  CHANNELS 3 Zrotation Xrotation Yrotation
                  End Site
                  {
                    OFFSET -2.33842 -0.294052 0.168128
                  }
                }
              }
              JOINT rPinky1
              {
                OFFSET -8.27202 -0.0477905 -0.4584
                CHANNELS 3 Zrotation Xrotation Yrotation
                JOINT rPinky2
                {
                  OFFSET -1.82734 -0.647385 -0.700984
                  CHANNELS 3 Zrotation Xrotation Yrotation
                  End Site
                  {
                    OFFSET -1.69225 -0.51767 -0.607171
                  }
                }
              }
            }
          }
        }
      }
      JOINT lCollar
      {
        OFFSET 2.68224 19.2634 -4.8768
        CHANNELS 3 Zrotation Xrotation Yrotation
        JOINT lShldr
        {
          OFFSET 8.77824 -1.95073 1.46304
          CHANNELS 3 Zrotation Xrotation Yrotation
          JOINT lForeArm
          {
            OFFSET 28.1742 -1.7115 0.48768
            CHANNELS 3 Zrotation Xrotation Yrotation
            JOINT lHand
            {
              OFFSET 22.5879 0.773209 7.07136
              CHANNELS 3 Zrotation Xrotation Yrotation
              JOINT lThumb1
              {
                OFFSET 1.2192 -0.487915 3.41376
                CHANNELS 3 Zrotation Xrotation Yrotation
                JOINT lThumb2
                {
                  OFFSET 3.37035 -0.52449 3.41376
                  CHANNELS 3 Zrotation Xrotation Yrotation
                  End Site
                  {
                    OFFSET 1.78271 -1.18214 1.43049
                  }
                }
              }
              JOINT lIndex1
              {
                OFFSET 7.75947 0.938293 5.60832
                CHANNELS 3 Zrotation Xrotation Yrotation
                JOINT lIndex2
                {
                  OFFSET 2.54057 -0.884171 1.56538
                  CHANNELS 3 Zrotation Xrotation Yrotation
                  End Site
                  {
                    OFFSET 1.62519 -0.234802 1.16502
                  }
                }
              }
              JOINT lMid1
              {
                OFFSET 8.24714 1.18213 3.41376
                CHANNELS 3 Zrotation Xrotation Yrotation
                JOINT lMid2
                {
                  OFFSET 3.10165 -0.590103 1.0647
                  CHANNELS 3 Zrotation Xrotation Yrotation
                  End Site
                  {
                    OFFSET 2.48547 -0.328903 0.83742
                  }
                }
              }
              JOINT lRing1
              {
                OFFSET 8.82822 0.546677 1.51678
                CHANNELS 3 Zrotation Xrotation Yrotation
                JOINT lRing2
                {
                  OFFSET 2.60934 -0.819778 -0.0198488
                  CHANNELS 3 Zrotation Xrotation Yrotation
                  End Site
                  {
                    OFFSET 2.33842 -0.294052 0.168128
                  }
                }
              }
              JOINT lPinky1
              {
                OFFSET 8.27202 -0.0477905 -0.4584
                CHANNELS 3 Zrotation Xrotation Yrotation
                JOINT lPinky2
                {
                  OFFSET 1.82734 -0.647385 -0.700984
                  CHANNELS 3 Zrotation Xrotation Yrotation
                  End Site
                  {
                    OFFSET 1.69225 -0.51767 -0.607171
                  }
                }
              }
            }
          }
        }
      }
    }
  }
  JOINT rButtock
  {
    OFFSET -8.77824 4.35084 1.2192
    CHANNELS 3 Zrotation Xrotation Yrotation
    JOINT rThigh
    {
      OFFSET 0 -1.70687 -2.19456
      CHANNELS 3 Zrotation Xrotation Yrotation
      JOINT rShin
      {
        OFFSET 0 -36.8199 0.73152
        CHANNELS 3 Zrotation Xrotation Yrotation
        JOINT rFoot
        {
          OFFSET 0.73152 -45.1104 -5.12064
          CHANNELS 3 Zrotation Xrotation Yrotation
          End Site
          {
            OFFSET -1.1221 -3.69964 12.103
          }
        }
      }
    }
  }
  JOINT lButtock
  {
    OFFSET 8.77824 4.35084 1.2192
    CHANNELS 3 Zrotation Xrotation Yrotation
    JOINT lThigh
    {
      OFFSET 0 -1.70687 -2.19456
      CHANNELS 3 Zrotation Xrotation Yrotation
      JOINT lShin
      {
        OFFSET 0 -36.8199 0.73152
        CHANNELS 3 Zrotation Xrotation Yrotation
        JOINT lFoot
        {
          OFFSET -0.73152 -45.1104 -5.12064
          CHANNELS 3 Zrotation Xrotation Yrotation
          End Site
          {
            OFFSET 1.1221 -3.69964 12.103
          }
        }
      }
    }
  }
}
MOTION
Frames:	8
Frame Time:	0.00833333
-3.23357 84.2564 37.7659 0.0 0.0 0.0 -1.24151 -0.00398119 -0.0340789 -0.342494 -0.00249263 -0.0593272 3.11269e-14 0.0 -2.48481e-16 9.29474e-14 3.18055e-15 -7.11276e-16 -0.0 0.0 0.0 -0.0 0.0 0.0 1.58026e-14 5.82377e-18 9.93923e-17 3.26468e-13 2.85753e-16 -5.96354e-16 5.60747e-12 -1.67397e-12 -1.01778e-13 6.42347e-11 1.71238e-12 -3.62583e-13 1.51512e-10 8.27751e-14 -9.7643e-13 2.61639e-10 1.43125e-13 -1.69842e-12 1.51518e-10 8.66701e-14 -9.85972e-13 7.73091 5.47488 0.417314 1.51511e-10 8.28932e-14 -9.7325e-13 2.90554 0.965183 0.102902 1.51523e-10 8.36883e-14 -9.77225e-13 10.2786 0.731801 0.0259123 1.51509e-10 8.38871e-14 -9.66889e-13 2.22167 -0.733487 -0.20892 1.56064e-14 7.37677e-18 -2.98177e-16 3.24544e-13 9.93923e-17 -1.78906e-15 5.61785e-12 1.67874e-12 -9.85972e-14 6.42155e-11 -1.65993e-12 -3.37139e-13 1.51498e-10 4.01208e-14 -9.70069e-13 2.61642e-10 6.99722e-14 -1.68013e-12 1.51491e-10 4.13472e-14 -9.57347e-13 -7.73091 5.47488 -0.417314 1.51499e-10 3.96575e-14 -9.7325e-13 -2.90554 0.965183 -0.102902 1.51492e-10 4.01545e-14 -9.7325e-13 -10.2786 0.731801 -0.0259123 1.51505e-10 4.17448e-14 -9.89153e-13 -2.22167 -0.733487 0.20892 -2.03217e-16 0.0 -3.88251e-19 -0.453819 -1.92099 -0.00952747 -0.00915576 -2.07857 -0.0755535 -0.487475 3.99699 0.136656 2.03217e-16 0.0 3.88251e-19 -1.43726 -5.97115 0.129661 -0.00126434 5.25796 -0.0454147 0.507804 0.710743 -0.0722726
-4.52094 84.2201 37.2255 -3.9057 -4.3926 -1.1507 -0.542893 2.06919 0.594247 0.109771 -0.282411 0.143248 -0.464245 2.01125 -0.559028 3.34975 -2.27508 -0.803407 -0.0 0.0 0.0 -0.0 0.0 0.0 -2.79607e-14 -3.19629e-14 2.06224e-14 22.93 9.66017 -3.42672 -11.8668 -8.79971 13.3925 0.000643491 0.607622 0.0853813 4.3578e-10 -3.14384e-10 -2.81329e-10 7.52637e-10 -5.42383e-10 -4.86382e-10 4.35788e-10 -3.14381e-10 -2.81345e-10 7.73091 5.47488 0.417314 4.3578e-10 -3.14384e-10 -2.81327e-10 2.90554 0.965183 0.102902 4.3579e-10 -3.14384e-10 -2.81329e-10 10.2786 0.731801 0.0259123 4.35777e-10 -3.14384e-10 -2.8132e-10 2.22167 -0.733487 -0.20892 -2.81148e-14 -3.19619e-14 2.03234e-14 -22.7172 12.7213 1.34922 9.65175 -6.50609 -12.0981 -0.00880019 -2.13623 0.299554 3.88238e-10 6.13294e-10 2.12998e-10 6.68302e-10 1.05803e-09 3.69842e-10 3.88232e-10 6.13295e-10 2.13007e-10 -7.73091 5.47488 -0.417314 3.88238e-10 6.13292e-10 2.12995e-10 -2.90554 0.965183 -0.102902 3.88231e-10 6.13293e-10 2.12995e-10 -10.2786 0.731801 -0.0259123 3.88245e-10 6.13297e-10 2.12982e-10 -2.22167 -0.733487 0.20892 -2.03217e-16 0.0 -3.88251e-19 -1.28349 0.373231 0.186843 -0.00561357 -1.53922 -0.0511068 -0.506731 -0.205867 -2.39723 2.03217e-16 0.0 3.88251e-19 1.32429 -6.1748 -1.72069 -0.0169271 10.2613 -0.181222 0.958659 -4.72462 4.04645
-4.51458 84.2198 37.1787 -3.8364 -4.4845 -1.1494 0.147864 4.25576 1.26354 0.591212 -0.579835 0.358137 -0.916161 4.13192 -1.15335 6.83654 -4.70999 -1.65429 -0.0 0.0 0.0 -0.0 0.0 0.0 -7.48117e-14 -6.70875e-14 4.29499e-14 48.5026 19.7202 -7.39571 -19.8663 -16.357 28.4268 -0.000735832 1.2764 0.179391 7.49732e-10 -6.38396e-10 -6.0619e-10 1.29493e-09 -1.10127e-09 -1.04805e-09 7.49743e-10 -6.38394e-10 -6.06213e-10 7.73091 5.47488 0.417314 7.49732e-10 -6.38396e-10 -6.0619e-10 2.90554 0.965183 0.102902 7.4974e-10 -6.38397e-10 -6.0619e-10 10.2786 0.731801 0.0259123 7.49729e-10 -6.38398e-10 -6.06182e-10 2.22167 -0.733487 -0.20892 -7.49216e-14 -6.70869e-14 4.27573e-14 -47.4618 26.1147 3.01896 16.8117 -12.2946 -25.2791 0.00643595 -4.33855 0.609831 6.45358e-10 1.30134e-09 4.62632e-10 1.10981e-09 2.24475e-09 8.03126e-10 6.45352e-10 1.30134e-09 4.62637e-10 -7.73091 5.47488 -0.417314 6.45356e-10 1.30133e-09 4.62631e-10 -2.90554 0.965183 -0.102902 6.4535e-10 1.30133e-09 4.62629e-10 -10.2786 0.731801 -0.0259123 6.45364e-10 1.30134e-09 4.6262e-10 -2.22167 -0.733487 0.20892 -2.03217e-16 0.0 -3.88251e-19 -2.17743 2.79953 0.392926 -0.00237004 -0.969179 -0.0252855 -0.931489 -4.63148 -5.09042 2.03217e-16 0.0 3.88251e-19 4.22897 -6.38247 -3.68165 -0.00678771 15.55 -0.331127 2.2948 -10.3831 8.513
-4.48469 84.2205 37.1131 -3.6262 -4.6479 -1.1956 0.717283 6.21262 1.86067 1.02024 -0.842211 0.548453 -1.27446 6.03146 -1.68538 9.85675 -6.81985 -2.42549 -0.0 0.0 0.0 -0.0 0.0 0.0 -1.15487e-13 -9.59004e-14 6.16683e-14 72.6406 28.5365 -11.5537 -23.7404 -20.5373 43.005 -0.00350467 1.82285 0.256259 1.00432e-09 -9.43316e-10 -8.42033e-10 1.73463e-09 -1.62744e-09 -1.45575e-09 1.00433e-09 -9.43316e-10 -8.42062e-10 7.73091 5.47488 0.417314 1.00432e-09 -9.43317e-10 -8.42035e-10 2.90554 0.965183 0.102902 1.00432e-09 -9.43319e-10 -8.42033e-10 10.2786 0.731801 0.0259123 1.00431e-09 -9.4332e-10 -8.42025e-10 2.22167 -0.733487 -0.20892 -1.15557e-13 -9.59003e-14 6.15666e-14 -70.3587 38.0672 5.01748 21.0644 -16.018 -37.7606 0.0409669 -6.40798 0.903683 8.61719e-10 1.8398e-09 6.40933e-10 1.48162e-09 3.17395e-09 1.11289e-09 8.61714e-10 1.8398e-09 6.40935e-10 -7.73091 5.47488 -0.417314 8.61716e-10 1.8398e-09 6.40933e-10 -2.90554 0.965183 -0.102902 8.61711e-10 1.8398e-09 6.40931e-10 -10.2786 0.731801 -0.0259123 8.61724e-10 1.83981e-09 6.40925e-10 -2.22167 -0.733487 0.20892 -2.03217e-16 0.0 -3.88251e-19 -2.99014 4.96141 0.581742 9.03972e-05 -0.460511 -0.00225751 -1.66558 -8.53862 -7.54843 2.03217e-16 0.0 3.88251e-19 6.80798 -6.56108 -5.42566 0.0273744 20.2675 -0.473863 4.25588 -15.2664 12.6977
-4.50792 84.2213 37.1354 -3.7707 -4.5594 -1.1822 1.0807 7.59806 2.26807 1.31397 -1.01701 0.677285 -1.48226 7.38041 -2.05382 11.8501 -8.1223 -2.98211 -0.0 0.0 0.0 -0.0 0.0 0.0 -1.40724e-13 -1.08934e-13 7.13637e-14 90.3649 34.6635 -14.9994 -25.2507 -21.6449 53.8526 -0.00522516 2.06351 0.290134 1.11048e-09 -1.20051e-09 -8.55331e-10 1.91789e-09 -2.0718e-09 -1.47853e-09 1.1105e-09 -1.20051e-09 -8.55362e-10 7.73091 5.47488 0.417314 1.11048e-09 -1.20051e-09 -8.55334e-10 2.90554 0.965183 0.102902 1.11049e-09 -1.20051e-09 -8.55331e-10 10.2786 0.731801 0.0259123 1.11048e-09 -1.20051e-09 -8.55324e-10 2.22167 -0.733487 -0.20892 -1.40764e-13 -1.08934e-13 7.1314e-14 -87.0007 46.5053 6.97477 23.2073 -17.6849 -47.1912 0.0820772 -8.1457 1.15266 9.76185e-10 2.00433e-09 6.40901e-10 1.67918e-09 3.45937e-09 1.11384e-09 9.76181e-10 2.00434e-09 6.40901e-10 -7.73091 5.47488 -0.417314 9.7618e-10 2.00433e-09 6.40901e-10 -2.90554 0.965183 -0.102902 9.76176e-10 2.00433e-09 6.40898e-10 -10.2786 0.731801 -0.0259123 9.7619e-10 2.00434e-09 6.40895e-10 -2.22167 -0.733487 0.20892 -2.03217e-16 0.0 -3.88251e-19 -3.56709 6.46248 0.724992 0.00156596 -0.105271 0.0138117 -2.38172 -11.225 -9.31957 2.03217e-16 0.0 3.88251e-19 8.60044 -6.68262 -6.62424 0.0668383 23.5573 -0.580508 6.0677 -18.5284 15.775
-4.51224 84.2192 37.1142 -3.7926 -4.5544 -1.1581 1.19716 8.18456 2.3977 1.4158 -1.06422 0.718318 -1.51275 7.9637 -2.18588 12.4655 -8.30888 -3.22505 -0.0 0.0 0.0 -0.0 0.0 0.0 -1.44067e-13 -9.87968e-14 6.6469e-14 97.5114 37.3865 -16.4781 -25.8733 -21.9941 58.9716 -0.00401302 1.86348 0.26198 1.00946e-09 -1.48135e-09 -5.09639e-10 1.74322e-09 -2.55842e-09 -8.80406e-10 1.00948e-09 -1.48135e-09 -5.09667e-10 7.73091 5.47488 0.417314 1.00946e-09 -1.48135e-09 -5.09642e-10 2.90554 0.965183 0.102902 1.00947e-09 -1.48135e-09 -5.0964e-10 10.2786 0.731801 0.0259123 1.00946e-09 -1.48135e-09 -5.09634e-10 2.22167 -0.733487 -0.20892 -1.44088e-13 -9.87965e-14 6.64135e-14 -93.698 50.1055 7.98744 24.1661 -18.5298 -51.9589 0.115656 -9.45181 1.34106 9.38116e-10 1.63436e-09 3.6765e-10 1.61579e-09 2.82443e-09 6.41785e-10 9.38111e-10 1.63436e-09 3.67651e-10 -7.73091 5.47488 -0.417314 9.3811e-10 1.63436e-09 3.67649e-10 -2.90554 0.965183 -0.102902 9.38105e-10 1.63435e-09 3.67645e-10 -10.2786 0.731801 -0.0259123 9.38119e-10 1.63437e-09 3.67643e-10 -2.22167 -0.733487 0.20892 -2.03217e-16 0.0 -3.88251e-19 -3.7989 7.03525 0.801872 0.00209505 0.0353018 0.0201541 -2.71295 -12.2619 -10.0481 2.03217e-16 0.0 3.88251e-19 9.30426 -6.73446 -7.05626 0.0869049 24.8483 -0.624519 6.87299 -19.7505 17.0175
-4.51357 84.2167 37.0776 -3.7775 -4.6071 -1.1421 1.14745 8.20097 2.32726 1.38022 -1.02055 0.696708 -1.42569 8.00037 -2.14752 12.1099 -7.69891 -3.2418 -0.0 0.0 0.0 -0.0 0.0 0.0 -1.31785e-13 -7.21597e-14 5.12461e-14 96.6249 37.7932 -16.2086 -26.1861 -22.9072 60.1582 -0.00158978 1.34927 0.189644 7.60429e-10 -1.77477e-09 9.02164e-11 1.31283e-09 -3.06775e-09 1.57327e-10 7.60437e-10 -1.77476e-09 9.01944e-11 7.73091 5.47488 0.417314 7.60428e-10 -1.77476e-09 9.02125e-11 2.90554 0.965183 0.102902 7.60433e-10 -1.77477e-09 9.02129e-11 10.2786 0.731801 0.0259123 7.60422e-10 -1.77477e-09 9.02188e-11 2.22167 -0.733487 -0.20892 -1.31793e-13 -7.21587e-14 5.11436e-14 -92.8297 50.286 7.92516 24.618 -19.4839 -53.3996 0.140081 -10.4482 1.4854 7.91563e-10 8.83125e-10 -9.96353e-11 1.36682e-09 1.53297e-09 -1.66198e-10 7.91558e-10 8.83129e-10 -9.96311e-11 -7.73091 5.47488 -0.417314 7.91555e-10 8.83119e-10 -9.96372e-11 -2.90554 0.965183 -0.102902 7.91551e-10 8.83115e-10 -9.96442e-11 -10.2786 0.731801 -0.0259123 7.91566e-10 8.83128e-10 -9.96452e-11 -2.22167 -0.733487 0.20892 -2.03217e-16 0.0 -3.88251e-19 -3.78029 6.94518 0.830711 0.00204862 0.022535 0.0195482 -2.68272 -12.1383 -10.006 2.03217e-16 0.0 3.88251e-19 9.23319 -6.73816 -6.94051 0.086266 24.7117 -0.620192 6.7679 -19.5849 16.8678
-4.51505 84.2172 37.049 -3.7612 -4.6592 -1.1583 1.03454 7.99085 2.18568 1.2907 -0.94852 0.652736 -1.29834 7.81257 -2.04388 11.3693 -6.75293 -3.17335 -0.0 0.0 0.0 -0.0 0.0 0.0 -1.13701e-13 -4.06522e-14 3.50245e-14 92.4959 37.2502 -15.2049 -26.4498 -24.2937 59.8092 -0.000178434 0.729521 0.10252 4.51222e-10 -1.92847e-09 7.15854e-10 7.78397e-10 -3.33533e-09 1.23965e-09 4.51226e-10 -1.92847e-09 7.15839e-10 7.73091 5.47488 0.417314 4.51221e-10 -1.92847e-09 7.1585e-10 2.90554 0.965183 0.102902 4.51226e-10 -1.92847e-09 7.15849e-10 10.2786 0.731801 0.0259123 4.51214e-10 -1.92847e-09 7.15854e-10 2.22167 -0.733487 -0.20892 -1.13706e-13 -4.06504e-14 3.48642e-14 -88.8773 49.1087 7.36037 24.9481 -20.6824 -53.5073 0.159564 -11.2687 1.60473 6.17427e-10 -3.02719e-12 -6.06851e-10 1.07081e-09 9.45422e-12 -1.04346e-09 6.17422e-10 -3.02203e-12 -6.06844e-10 -7.73091 5.47488 -0.417314 6.1742e-10 -3.03318e-12 -6.06854e-10 -2.90554 0.965183 -0.102902 6.17414e-10 -3.03951e-12 -6.06863e-10 -10.2786 0.731801 -0.0259123 6.1743e-10 -3.02647e-12 -6.06864e-10 -2.22167 -0.733487 0.20892 -2.03217e-16 0.0 -3.88251e-19 -3.66146 6.59531 0.841222 0.00177058 -0.0517815 0.0161462 -2.50623 -11.5492 -9.65142 2.03217e-16 0.0 3.88251e-19 8.85133 -6.71815 -6.60821 0.0771549 24.0048 -0.596443 6.30094 -18.8678 16.1613
